<?xml version="1.0" encoding="utf-8" standalone="no"?>
<!DOCTYPE svg PUBLIC "-//W3C//DTD SVG 1.1//EN"
  "http://www.w3.org/Graphics/SVG/1.1/DTD/svg11.dtd">
<svg xmlns:xlink="http://www.w3.org/1999/xlink" width="352.79625pt" height="280.74975pt" viewBox="0 0 352.79625 280.74975" xmlns="http://www.w3.org/2000/svg" version="1.1">
 <metadata>
  <rdf:RDF xmlns:dc="http://purl.org/dc/elements/1.1/" xmlns:cc="http://creativecommons.org/ns#" xmlns:rdf="http://www.w3.org/1999/02/22-rdf-syntax-ns#">
   <cc:Work>
    <dc:type rdf:resource="http://purl.org/dc/dcmitype/StillImage"/>
    <dc:date>2026-07-04T08:46:52.604132</dc:date>
    <dc:format>image/svg+xml</dc:format>
    <dc:creator>
     <cc:Agent>
      <dc:title>Matplotlib v3.7.3, https://matplotlib.org/</dc:title>
     </cc:Agent>
    </dc:creator>
   </cc:Work>
  </rdf:RDF>
 </metadata>
 <defs>
  <style type="text/css">*{stroke-linejoin: round; stroke-linecap: butt}</style>
 </defs>
 <g id="figure_1">
  <g id="patch_1">
   <path d="M -0 280.74975 
L 352.79625 280.74975 
L 352.79625 0 
L -0 0 
z
" style="fill: #ffffff"/>
  </g>
  <g id="axes_1">
   <g id="patch_2">
    <path d="M 35.07625 254.936 
L 345.59625 254.936 
L 345.59625 7.2 
L 35.07625 7.2 
z
" style="fill: #ffffff"/>
   </g>
   <g id="matplotlib.axis_1">
    <g id="xtick_1">
     <g id="line2d_1">
      <defs>
       <path id="md2a1949cdc" d="M 0 0 
L 0 3.5 
" style="stroke: #000000; stroke-width: 0.8"/>
      </defs>
      <g>
       <use xlink:href="#md2a1949cdc" x="49.190795" y="254.936" style="stroke: #000000; stroke-width: 0.8"/>
      </g>
     </g>
     <g id="text_1">
      <text style="font: 700 12px 'DejaVu Serif'; text-anchor: middle" x="49.190795" y="271.054125" transform="rotate(-0 49.190795 271.054125)">0.0</text>
     </g>
    </g>
    <g id="xtick_2">
     <g id="line2d_2">
      <g>
       <use xlink:href="#md2a1949cdc" x="105.648977" y="254.936" style="stroke: #000000; stroke-width: 0.8"/>
      </g>
     </g>
     <g id="text_2">
      <text style="font: 700 12px 'DejaVu Serif'; text-anchor: middle" x="105.648977" y="271.054125" transform="rotate(-0 105.648977 271.054125)">0.2</text>
     </g>
    </g>
    <g id="xtick_3">
     <g id="line2d_3">
      <g>
       <use xlink:href="#md2a1949cdc" x="162.107159" y="254.936" style="stroke: #000000; stroke-width: 0.8"/>
      </g>
     </g>
     <g id="text_3">
      <text style="font: 700 12px 'DejaVu Serif'; text-anchor: middle" x="162.107159" y="271.054125" transform="rotate(-0 162.107159 271.054125)">0.4</text>
     </g>
    </g>
    <g id="xtick_4">
     <g id="line2d_4">
      <g>
       <use xlink:href="#md2a1949cdc" x="218.565341" y="254.936" style="stroke: #000000; stroke-width: 0.8"/>
      </g>
     </g>
     <g id="text_4">
      <text style="font: 700 12px 'DejaVu Serif'; text-anchor: middle" x="218.565341" y="271.054125" transform="rotate(-0 218.565341 271.054125)">0.6</text>
     </g>
    </g>
    <g id="xtick_5">
     <g id="line2d_5">
      <g>
       <use xlink:href="#md2a1949cdc" x="275.023523" y="254.936" style="stroke: #000000; stroke-width: 0.8"/>
      </g>
     </g>
     <g id="text_5">
      <text style="font: 700 12px 'DejaVu Serif'; text-anchor: middle" x="275.023523" y="271.054125" transform="rotate(-0 275.023523 271.054125)">0.8</text>
     </g>
    </g>
    <g id="xtick_6">
     <g id="line2d_6">
      <g>
       <use xlink:href="#md2a1949cdc" x="331.481705" y="254.936" style="stroke: #000000; stroke-width: 0.8"/>
      </g>
     </g>
     <g id="text_6">
      <text style="font: 700 12px 'DejaVu Serif'; text-anchor: middle" x="331.481705" y="271.054125" transform="rotate(-0 331.481705 271.054125)">1.0</text>
     </g>
    </g>
   </g>
   <g id="matplotlib.axis_2">
    <g id="ytick_1">
     <g id="line2d_7">
      <defs>
       <path id="mfa90379522" d="M 0 0 
L -3.5 0 
" style="stroke: #000000; stroke-width: 0.8"/>
      </defs>
      <g>
       <use xlink:href="#mfa90379522" x="35.07625" y="243.675273" style="stroke: #000000; stroke-width: 0.8"/>
      </g>
     </g>
     <g id="text_7">
      <text style="font: 700 12px 'DejaVu Serif'; text-anchor: end" x="28.07625" y="248.234335" transform="rotate(-0 28.07625 248.234335)">0.0</text>
     </g>
    </g>
    <g id="ytick_2">
     <g id="line2d_8">
      <g>
       <use xlink:href="#mfa90379522" x="35.07625" y="198.632364" style="stroke: #000000; stroke-width: 0.8"/>
      </g>
     </g>
     <g id="text_8">
      <text style="font: 700 12px 'DejaVu Serif'; text-anchor: end" x="28.07625" y="203.191426" transform="rotate(-0 28.07625 203.191426)">0.2</text>
     </g>
    </g>
    <g id="ytick_3">
     <g id="line2d_9">
      <g>
       <use xlink:href="#mfa90379522" x="35.07625" y="153.589455" style="stroke: #000000; stroke-width: 0.8"/>
      </g>
     </g>
     <g id="text_9">
      <text style="font: 700 12px 'DejaVu Serif'; text-anchor: end" x="28.07625" y="158.148517" transform="rotate(-0 28.07625 158.148517)">0.4</text>
     </g>
    </g>
    <g id="ytick_4">
     <g id="line2d_10">
      <g>
       <use xlink:href="#mfa90379522" x="35.07625" y="108.546545" style="stroke: #000000; stroke-width: 0.8"/>
      </g>
     </g>
     <g id="text_10">
      <text style="font: 700 12px 'DejaVu Serif'; text-anchor: end" x="28.07625" y="113.105608" transform="rotate(-0 28.07625 113.105608)">0.6</text>
     </g>
    </g>
    <g id="ytick_5">
     <g id="line2d_11">
      <g>
       <use xlink:href="#mfa90379522" x="35.07625" y="63.503636" style="stroke: #000000; stroke-width: 0.8"/>
      </g>
     </g>
     <g id="text_11">
      <text style="font: 700 12px 'DejaVu Serif'; text-anchor: end" x="28.07625" y="68.062699" transform="rotate(-0 28.07625 68.062699)">0.8</text>
     </g>
    </g>
    <g id="ytick_6">
     <g id="line2d_12">
      <g>
       <use xlink:href="#mfa90379522" x="35.07625" y="18.460727" style="stroke: #000000; stroke-width: 0.8"/>
      </g>
     </g>
     <g id="text_12">
      <text style="font: 700 12px 'DejaVu Serif'; text-anchor: end" x="28.07625" y="23.01979" transform="rotate(-0 28.07625 23.01979)">1.0</text>
     </g>
    </g>
   </g>
   <g id="line2d_13">
    <path d="M 49.190795 243.675273 
L 49.190795 233.883336 
L 49.190795 204.507526 
L 331.481705 18.460727 
" clip-path="url(#p6655871446)" style="fill: none; stroke: #123b73; stroke-width: 2.2; stroke-linecap: square"/>
   </g>
   <g id="line2d_14">
    <path d="M 49.190795 243.675273 
L 59.646014 243.675273 
L 59.646014 184.923652 
L 70.101233 184.923652 
L 70.101233 165.339779 
L 331.481705 18.460727 
" clip-path="url(#p6655871446)" style="fill: none; stroke: #355f9a; stroke-width: 2.2; stroke-linecap: square"/>
   </g>
   <g id="line2d_15">
    <path d="M 49.190795 243.675273 
L 49.190795 233.883336 
L 80.556452 233.883336 
L 80.556452 224.091399 
L 111.922109 224.091399 
L 111.922109 204.507526 
L 122.377327 204.507526 
L 122.377327 184.923652 
L 132.832546 184.923652 
L 132.832546 145.755905 
L 153.742984 145.755905 
L 153.742984 106.588158 
L 164.198203 106.588158 
L 164.198203 96.796221 
L 174.653422 96.796221 
L 174.653422 87.004285 
L 185.108641 87.004285 
L 185.108641 47.836538 
L 331.481705 18.460727 
" clip-path="url(#p6655871446)" style="fill: none; stroke: #6e7480; stroke-width: 2.2; stroke-linecap: square"/>
   </g>
   <g id="line2d_16">
    <path d="M 49.190795 243.675273 
L 49.190795 233.883336 
L 49.190795 214.299462 
L 59.646014 214.299462 
L 59.646014 184.923652 
L 80.556452 184.923652 
L 80.556452 175.131715 
L 331.481705 18.460727 
" clip-path="url(#p6655871446)" style="fill: none; stroke: #9c8f73; stroke-width: 2.2; stroke-linecap: square"/>
   </g>
   <g id="line2d_17">
    <path d="M 49.190795 243.675273 
L 49.190795 233.883336 
L 122.377327 233.883336 
L 122.377327 214.299462 
L 132.832546 214.299462 
L 132.832546 175.131715 
L 143.287765 175.131715 
L 143.287765 145.755905 
L 164.198203 145.755905 
L 164.198203 126.172032 
L 174.653422 126.172032 
L 174.653422 106.588158 
L 185.108641 106.588158 
L 185.108641 96.796221 
L 195.563859 96.796221 
L 195.563859 87.004285 
L 206.019078 87.004285 
L 206.019078 67.420411 
L 258.295173 67.420411 
L 331.481705 18.460727 
" clip-path="url(#p6655871446)" style="fill: none; stroke: #f0d800; stroke-width: 2.2; stroke-linecap: square"/>
   </g>
   <g id="line2d_18">
    <path d="M 49.190795 243.675273 
L 331.481705 18.460727 
" clip-path="url(#p6655871446)" style="fill: none; stroke-dasharray: 4.44,1.92; stroke-dashoffset: 0; stroke: #808080; stroke-opacity: 0.7; stroke-width: 1.2"/>
   </g>
   <g id="patch_3">
    <path d="M 35.07625 254.936 
L 35.07625 7.2 
" style="fill: none; stroke: #000000; stroke-width: 0.8; stroke-linejoin: miter; stroke-linecap: square"/>
   </g>
   <g id="patch_4">
    <path d="M 35.07625 254.936 
L 345.59625 254.936 
" style="fill: none; stroke: #000000; stroke-width: 0.8; stroke-linejoin: miter; stroke-linecap: square"/>
   </g>
   <g id="legend_1">
    <g id="line2d_19">
     <path d="M 171.849375 166.985375 
L 183.849375 166.985375 
L 195.849375 166.985375 
" style="fill: none; stroke: #123b73; stroke-width: 2.2; stroke-linecap: square"/>
    </g>
    <g id="text_13">
     <text style="font: 700 12px 'DejaVu Serif'; text-anchor: start" x="205.449375" y="171.185375" transform="rotate(-0 205.449375 171.185375)">T=1000, AUC=0.59</text>
    </g>
    <g id="line2d_20">
     <path d="M 171.849375 184.599125 
L 183.849375 184.599125 
L 195.849375 184.599125 
" style="fill: none; stroke: #355f9a; stroke-width: 2.2; stroke-linecap: square"/>
    </g>
    <g id="text_14">
     <text style="font: 700 12px 'DejaVu Serif'; text-anchor: start" x="205.449375" y="188.799125" transform="rotate(-0 205.449375 188.799125)">T=800, AUC=0.63</text>
    </g>
    <g id="line2d_21">
     <path d="M 171.849375 202.212875 
L 183.849375 202.212875 
L 195.849375 202.212875 
" style="fill: none; stroke: #6e7480; stroke-width: 2.2; stroke-linecap: square"/>
    </g>
    <g id="text_15">
     <text style="font: 700 12px 'DejaVu Serif'; text-anchor: start" x="205.449375" y="206.412875" transform="rotate(-0 205.449375 206.412875)">T=600, AUC=0.62</text>
    </g>
    <g id="line2d_22">
     <path d="M 171.849375 219.826625 
L 183.849375 219.826625 
L 195.849375 219.826625 
" style="fill: none; stroke: #9c8f73; stroke-width: 2.2; stroke-linecap: square"/>
    </g>
    <g id="text_16">
     <text style="font: 700 12px 'DejaVu Serif'; text-anchor: start" x="205.449375" y="224.026625" transform="rotate(-0 205.449375 224.026625)">T=400, AUC=0.60</text>
    </g>
    <g id="line2d_23">
     <path d="M 171.849375 237.440375 
L 183.849375 237.440375 
L 195.849375 237.440375 
" style="fill: none; stroke: #f0d800; stroke-width: 2.2; stroke-linecap: square"/>
    </g>
    <g id="text_17">
     <text style="font: 700 12px 'DejaVu Serif'; text-anchor: start" x="205.449375" y="241.640375" transform="rotate(-0 205.449375 241.640375)">T=200, AUC=0.53</text>
    </g>
   </g>
  </g>
 </g>
 <defs>
  <clipPath id="p6655871446">
   <rect x="35.07625" y="7.2" width="310.52" height="247.736"/>
  </clipPath>
 </defs>
</svg>
